# xmcd
#
# Track frame offsets:
#	150
#	18866
#	34850
#	46528
#	68170
#	81415
#	100232
#	118217
#	137463
#	148940
#	170447
#	183790
#	198397
#	216610
#	232025
#
# Disc length: 3323 seconds
#
# Revision: 0
# Processed by: cddbd v1.5.2PL0 Copyright (c) Steve Scherf et al.
# Submitted via: SynApp - FreeCDDB Version: 2.5
#
DISCID=d60cf90f
DTITLE=DION - Bronx in Blue
DYEAR=2005
DGENRE=Blues
TTITLE0=Walkin' Blues
TTITLE1=You're The One
TTITLE2=I Let My Baby Do That
TTITLE3=Who Do You Love
TTITLE4=Built For Comfort
TTITLE5=Crossroads
TTITLE6=Travelin' Riverside Blues
TTITLE7=You Better Watch Yourself
TTITLE8=How Many More Years
TTITLE9=Terraplane Blues
TTITLE10=Honky Tonk Blues
TTITLE11=Baby, What You Want Me To Do
TTITLE12=Statesboro Blues
TTITLE13=If You Wanna Rock and Roll
TTITLE14=The Wanderer
EXTD=
EXTT0=
EXTT1=
EXTT2=
EXTT3=
EXTT4=
EXTT5=
EXTT6=
EXTT7=
EXTT8=
EXTT9=
EXTT10=
EXTT11=
EXTT12=
EXTT13=
EXTT14=
PLAYORDER=
